<svg xmlns="http://www.w3.org/2000/svg" width="740" height="416" viewBox="0 0 740 416">
<style>text{font-family:Inter,system-ui,sans-serif} .small{font-size:12px;fill:#cbd5ff} .label{font-size:11px;fill:#0f1220;font-weight:700} .title{font-size:20px;fill:#eef2ff;font-weight:700} .sub{font-size:12px;fill:#aab3d1}</style>
<rect width="100%" height="100%" fill="#0f1220"/>
<text x="24" y="28" class="title">route_a_温暖村庄广场-白天-16-bit-治愈系-有喷泉和木屋</text>
<text x="24" y="48" class="sub">Route A preview · jrpg-town · top-down · theme=jrpg-town-base</text>
<rect x="24" y="64" width="480" height="336" fill="#171b2f" stroke="#39446f"/>
<line x1="24" y1="64" x2="24" y2="400" stroke="#253055" stroke-width="1"/>
<line x1="48" y1="64" x2="48" y2="400" stroke="#253055" stroke-width="1"/>
<line x1="72" y1="64" x2="72" y2="400" stroke="#253055" stroke-width="1"/>
<line x1="96" y1="64" x2="96" y2="400" stroke="#253055" stroke-width="1"/>
<line x1="120" y1="64" x2="120" y2="400" stroke="#253055" stroke-width="1"/>
<line x1="144" y1="64" x2="144" y2="400" stroke="#253055" stroke-width="1"/>
<line x1="168" y1="64" x2="168" y2="400" stroke="#253055" stroke-width="1"/>
<line x1="192" y1="64" x2="192" y2="400" stroke="#253055" stroke-width="1"/>
<line x1="216" y1="64" x2="216" y2="400" stroke="#253055" stroke-width="1"/>
<line x1="240" y1="64" x2="240" y2="400" stroke="#253055" stroke-width="1"/>
<line x1="264" y1="64" x2="264" y2="400" stroke="#253055" stroke-width="1"/>
<line x1="288" y1="64" x2="288" y2="400" stroke="#253055" stroke-width="1"/>
<line x1="312" y1="64" x2="312" y2="400" stroke="#253055" stroke-width="1"/>
<line x1="336" y1="64" x2="336" y2="400" stroke="#253055" stroke-width="1"/>
<line x1="360" y1="64" x2="360" y2="400" stroke="#253055" stroke-width="1"/>
<line x1="384" y1="64" x2="384" y2="400" stroke="#253055" stroke-width="1"/>
<line x1="408" y1="64" x2="408" y2="400" stroke="#253055" stroke-width="1"/>
<line x1="432" y1="64" x2="432" y2="400" stroke="#253055" stroke-width="1"/>
<line x1="456" y1="64" x2="456" y2="400" stroke="#253055" stroke-width="1"/>
<line x1="480" y1="64" x2="480" y2="400" stroke="#253055" stroke-width="1"/>
<line x1="504" y1="64" x2="504" y2="400" stroke="#253055" stroke-width="1"/>
<line x1="24" y1="64" x2="504" y2="64" stroke="#253055" stroke-width="1"/>
<line x1="24" y1="88" x2="504" y2="88" stroke="#253055" stroke-width="1"/>
<line x1="24" y1="112" x2="504" y2="112" stroke="#253055" stroke-width="1"/>
<line x1="24" y1="136" x2="504" y2="136" stroke="#253055" stroke-width="1"/>
<line x1="24" y1="160" x2="504" y2="160" stroke="#253055" stroke-width="1"/>
<line x1="24" y1="184" x2="504" y2="184" stroke="#253055" stroke-width="1"/>
<line x1="24" y1="208" x2="504" y2="208" stroke="#253055" stroke-width="1"/>
<line x1="24" y1="232" x2="504" y2="232" stroke="#253055" stroke-width="1"/>
<line x1="24" y1="256" x2="504" y2="256" stroke="#253055" stroke-width="1"/>
<line x1="24" y1="280" x2="504" y2="280" stroke="#253055" stroke-width="1"/>
<line x1="24" y1="304" x2="504" y2="304" stroke="#253055" stroke-width="1"/>
<line x1="24" y1="328" x2="504" y2="328" stroke="#253055" stroke-width="1"/>
<line x1="24" y1="352" x2="504" y2="352" stroke="#253055" stroke-width="1"/>
<line x1="24" y1="376" x2="504" y2="376" stroke="#253055" stroke-width="1"/>
<line x1="24" y1="400" x2="504" y2="400" stroke="#253055" stroke-width="1"/>
<rect x="216" y="88" width="96" height="72" fill="#36d1c4" fill-opacity="0.18" stroke="#36d1c4" stroke-width="2" rx="6"/>
<text x="222" y="104" class="label">entrance_focus</text>
<rect x="192" y="184" width="144" height="96" fill="#7c5cff" fill-opacity="0.18" stroke="#7c5cff" stroke-width="2" rx="6"/>
<text x="198" y="200" class="label">mid_plaza</text>
<rect x="48" y="136" width="144" height="216" fill="#f59e0b" fill-opacity="0.18" stroke="#f59e0b" stroke-width="2" rx="6"/>
<text x="54" y="152" class="label">left_support</text>
<rect x="336" y="136" width="144" height="216" fill="#ef4444" fill-opacity="0.18" stroke="#ef4444" stroke-width="2" rx="6"/>
<text x="342" y="152" class="label">right_support</text>
<rect x="216" y="304" width="96" height="96" fill="#22c55e" fill-opacity="0.18" stroke="#22c55e" stroke-width="2" rx="6"/>
<text x="222" y="320" class="label">bottom_approach</text>
<rect x="216" y="88" width="96" height="72" fill="#c7b469" fill-opacity="0.75" stroke="#fff0ae" stroke-width="2" rx="4"/>
<text x="220" y="104" class="label">hero_gate</text>
<rect x="72" y="208" width="72" height="72" fill="#c7b469" fill-opacity="0.75" stroke="#fff0ae" stroke-width="2" rx="4"/>
<text x="76" y="224" class="label">left_house</text>
<rect x="384" y="208" width="72" height="72" fill="#c7b469" fill-opacity="0.75" stroke="#fff0ae" stroke-width="2" rx="4"/>
<text x="388" y="224" class="label">right_house</text>
<circle cx="276.0" cy="244.0" r="7" fill="#5ec2a6" stroke="#0f1220" stroke-width="2"/>
<text x="528" y="88" class="title">What this gives the user</text>
<text x="528" y="120" class="small">1. Readable blockout, not just raw JSON</text>
<text x="528" y="144" class="small">2. Zones / path / focal point visible at a glance</text>
<text x="528" y="168" class="small">3. Direct handoff to Tiled / LDtk workflow</text>
<text x="528" y="192" class="small">4. Placeholder tileset ready for real-asset replacement</text>
<text x="528" y="240" class="title">Next step</text>
<text x="528" y="266" class="small">Open scene.tiled-project.tmj</text>
<text x="528" y="286" class="small">Swap tileset-placeholder.png</text>
<text x="528" y="306" class="small">Adjust path/collision/object placements</text>
</svg>